<svg width="77" height="77" viewBox="0 0 77 77" fill="none" xmlns="http://www.w3.org/2000/svg">
<rect width="77" height="77" rx="38.5" fill="#1545A4"/>
<path d="M53.3702 31.385C53.2169 31.1635 53.0121 30.9824 52.7735 30.8573C52.5349 30.7322 52.2696 30.6668 52.0002 30.6667H29.2218L27.2985 26.05C27.0463 25.442 26.6193 24.9227 26.0715 24.5577C25.5238 24.1927 24.88 23.9986 24.2218 24H20.3335V27.3333H24.2218L32.1285 46.3083C32.2551 46.6119 32.4688 46.8713 32.7425 47.0537C33.0163 47.2361 33.3379 47.3334 33.6668 47.3333H47.0002C47.6952 47.3333 48.3168 46.9017 48.5618 46.2533L53.5618 32.92C53.6563 32.6677 53.6883 32.3963 53.6549 32.1289C53.6215 31.8616 53.5238 31.6063 53.3702 31.385Z" fill="white"/>
<path d="M34.5 54C35.8807 54 37 52.8807 37 51.5C37 50.1193 35.8807 49 34.5 49C33.1193 49 32 50.1193 32 51.5C32 52.8807 33.1193 54 34.5 54Z" fill="white"/>
<path d="M46.1667 54C47.5475 54 48.6667 52.8807 48.6667 51.5C48.6667 50.1193 47.5475 49 46.1667 49C44.786 49 43.6667 50.1193 43.6667 51.5C43.6667 52.8807 44.786 54 46.1667 54Z" fill="white"/>
</svg>