<svg width="133" height="23" viewBox="0 0 133 23" fill="none" xmlns="http://www.w3.org/2000/svg">
<path d="M10.2246 0.671875V22H5.96191V0.671875H10.2246ZM15.5273 0.671875V4.23145H0.761719V0.671875H15.5273ZM30.249 18.4551V22H20.9766V18.4551H30.249ZM22.3096 0.671875V22H18.0176V0.671875H22.3096ZM29.0039 9.31445V12.7568H20.9766V9.31445H29.0039ZM30.2197 0.671875V4.23145H20.9766V0.671875H30.2197ZM42.9199 14.8955H47.1826C47.124 16.4971 46.8018 17.8496 46.2158 18.9531C45.6299 20.0469 44.7949 20.877 43.7109 21.4434C42.6367 22.0098 41.3379 22.293 39.8145 22.293C38.6328 22.293 37.583 22.0977 36.665 21.707C35.7471 21.3066 34.9658 20.7207 34.3213 19.9492C33.6768 19.1777 33.1885 18.2256 32.8564 17.0928C32.5342 15.9502 32.373 14.6367 32.373 13.1523V9.53418C32.373 8.0498 32.5439 6.73633 32.8857 5.59375C33.2373 4.45117 33.7354 3.49414 34.3799 2.72266C35.0342 1.94141 35.8203 1.35547 36.7383 0.964844C37.666 0.564453 38.7109 0.364258 39.873 0.364258C41.4258 0.364258 42.7246 0.657227 43.7695 1.24316C44.8145 1.8291 45.6201 2.68359 46.1865 3.80664C46.7627 4.91992 47.1094 6.28223 47.2266 7.89355H42.9492C42.9199 6.87793 42.8027 6.08203 42.5977 5.50586C42.4023 4.91992 42.0898 4.50977 41.6602 4.27539C41.2305 4.03125 40.6348 3.90918 39.873 3.90918C39.3066 3.90918 38.8184 4.01172 38.4082 4.2168C37.998 4.41211 37.6611 4.72949 37.3975 5.16895C37.1338 5.6084 36.9385 6.18457 36.8115 6.89746C36.6943 7.61035 36.6357 8.47949 36.6357 9.50488V13.1523C36.6357 14.1582 36.6895 15.0176 36.7969 15.7305C36.9043 16.4336 37.0752 17.0098 37.3096 17.459C37.5439 17.9082 37.8613 18.2354 38.2617 18.4404C38.6719 18.6455 39.1895 18.748 39.8145 18.748C40.5371 18.748 41.1182 18.6406 41.5576 18.4258C42.0068 18.2109 42.3389 17.8252 42.5537 17.2686C42.7686 16.7119 42.8906 15.9209 42.9199 14.8955ZM64.8486 9.68066V13.2402C64.8486 14.7441 64.6631 16.0625 64.292 17.1953C63.9307 18.3184 63.4131 19.2607 62.7393 20.0225C62.0752 20.7744 61.2695 21.3408 60.3223 21.7217C59.3848 22.1025 58.3447 22.293 57.2021 22.293C56.0596 22.293 55.0146 22.1025 54.0674 21.7217C53.1299 21.3408 52.3193 20.7744 51.6357 20.0225C50.9619 19.2607 50.4395 18.3184 50.0684 17.1953C49.6973 16.0625 49.5117 14.7441 49.5117 13.2402V9.68066C49.5117 8.1377 49.6924 6.79004 50.0537 5.6377C50.415 4.47559 50.9375 3.50879 51.6211 2.7373C52.3047 1.95605 53.1152 1.37012 54.0527 0.979492C54.9902 0.579102 56.0303 0.378906 57.1729 0.378906C58.3154 0.378906 59.3555 0.579102 60.293 0.979492C61.2305 1.37012 62.041 1.95605 62.7246 2.7373C63.4082 3.50879 63.9307 4.47559 64.292 5.6377C64.6631 6.79004 64.8486 8.1377 64.8486 9.68066ZM60.5859 13.2402V9.65137C60.5859 8.63574 60.5127 7.77148 60.3662 7.05859C60.2197 6.33594 60 5.74512 59.707 5.28613C59.4141 4.82715 59.0576 4.49023 58.6377 4.27539C58.2178 4.06055 57.7295 3.95312 57.1729 3.95312C56.6162 3.95312 56.123 4.06055 55.6934 4.27539C55.2734 4.49023 54.917 4.82715 54.624 5.28613C54.3408 5.74512 54.126 6.33594 53.9795 7.05859C53.8428 7.77148 53.7744 8.63574 53.7744 9.65137V13.2402C53.7744 14.2168 53.8477 15.0518 53.9941 15.7451C54.1406 16.4385 54.3604 17.0049 54.6533 17.4443C54.9463 17.8838 55.3027 18.2109 55.7227 18.4258C56.1523 18.6309 56.6455 18.7334 57.2021 18.7334C57.749 18.7334 58.2324 18.6309 58.6523 18.4258C59.082 18.2109 59.4385 17.8838 59.7217 17.4443C60.0049 17.0049 60.2197 16.4385 60.3662 15.7451C60.5127 15.0518 60.5859 14.2168 60.5859 13.2402Z" fill="#1545A4"/>
<path d="M75.2344 14.4854H70.8691V10.9258H75.2344C75.8398 10.9258 76.333 10.7891 76.7139 10.5156C77.1045 10.2422 77.3877 9.86621 77.5635 9.3877C77.7393 8.89941 77.8271 8.35254 77.8271 7.74707C77.8271 7.13184 77.7344 6.56055 77.5488 6.0332C77.373 5.49609 77.0947 5.06152 76.7139 4.72949C76.3428 4.39746 75.8496 4.23145 75.2344 4.23145H72.2461V22H67.9688V0.671875H75.2344C76.6699 0.671875 77.9053 0.974609 78.9404 1.58008C79.9756 2.18555 80.7666 3.02051 81.3135 4.08496C81.8701 5.13965 82.1484 6.35059 82.1484 7.71777C82.1484 9.09473 81.8701 10.291 81.3135 11.3066C80.7666 12.3125 79.9756 13.0938 78.9404 13.6504C77.9053 14.207 76.6699 14.4854 75.2344 14.4854ZM90.1318 4.48047L85.5469 22H81.0205L87.6855 0.671875H90.5127L90.1318 4.48047ZM93.75 22L89.1357 4.48047L88.7109 0.671875H91.582L98.3057 22H93.75ZM93.9111 14.0459V17.6055H84.2871V14.0459H93.9111ZM110.186 14.8955H114.448C114.39 16.4971 114.067 17.8496 113.481 18.9531C112.896 20.0469 112.061 20.877 110.977 21.4434C109.902 22.0098 108.604 22.293 107.08 22.293C105.898 22.293 104.849 22.0977 103.931 21.707C103.013 21.3066 102.231 20.7207 101.587 19.9492C100.942 19.1777 100.454 18.2256 100.122 17.0928C99.7998 15.9502 99.6387 14.6367 99.6387 13.1523V9.53418C99.6387 8.0498 99.8096 6.73633 100.151 5.59375C100.503 4.45117 101.001 3.49414 101.646 2.72266C102.3 1.94141 103.086 1.35547 104.004 0.964844C104.932 0.564453 105.977 0.364258 107.139 0.364258C108.691 0.364258 109.99 0.657227 111.035 1.24316C112.08 1.8291 112.886 2.68359 113.452 3.80664C114.028 4.91992 114.375 6.28223 114.492 7.89355H110.215C110.186 6.87793 110.068 6.08203 109.863 5.50586C109.668 4.91992 109.355 4.50977 108.926 4.27539C108.496 4.03125 107.9 3.90918 107.139 3.90918C106.572 3.90918 106.084 4.01172 105.674 4.2168C105.264 4.41211 104.927 4.72949 104.663 5.16895C104.399 5.6084 104.204 6.18457 104.077 6.89746C103.96 7.61035 103.901 8.47949 103.901 9.50488V13.1523C103.901 14.1582 103.955 15.0176 104.062 15.7305C104.17 16.4336 104.341 17.0098 104.575 17.459C104.81 17.9082 105.127 18.2354 105.527 18.4404C105.938 18.6455 106.455 18.748 107.08 18.748C107.803 18.748 108.384 18.6406 108.823 18.4258C109.272 18.2109 109.604 17.8252 109.819 17.2686C110.034 16.7119 110.156 15.9209 110.186 14.8955ZM121.421 0.671875V22H117.129V0.671875H121.421ZM132.012 0.671875L125.098 11.2627L120.864 16.5361L120.044 12.2441L122.783 7.67383L126.797 0.671875H132.012ZM127.061 22L122.402 12.2002L125.552 9.41699L132.114 22H127.061Z" fill="#0E0E0E"/>
</svg>
